<svg width="99" height="100" viewBox="0 0 99 100" fill="none" xmlns="http://www.w3.org/2000/svg">
<path d="M82.5 81.6667C82.5 82.5867 81.7608 83.3333 80.85 83.3333C79.9392 83.3333 79.2 82.5867 79.2 81.6667C79.2 80.7467 79.9392 80 80.85 80C81.7608 80 82.5 80.7467 82.5 81.6667ZM77.55 40H84.15C85.0641 40 85.8 40.7433 85.8 41.6667C85.8 42.59 85.0641 43.3333 84.15 43.3333H77.55C76.6359 43.3333 75.9 42.59 75.9 41.6667C75.9 40.7433 76.6359 40 77.55 40ZM67.65 33.3333C64.9374 33.3333 62.7 35.5933 62.7 38.3333V85C62.7 87.74 64.9374 90 67.65 90H94.05C96.7626 90 99 87.74 99 85V38.3333C99 35.5933 96.7626 33.3333 94.05 33.3333H67.65ZM67.65 36.6667H94.05C94.9938 36.6667 95.7 37.38 95.7 38.3333V85C95.7 85.9533 94.9938 86.6667 94.05 86.6667H67.65C66.7062 86.6667 66 85.9533 66 85V38.3333C66 37.38 66.7062 36.6667 67.65 36.6667ZM46.2 65C46.2 65.92 45.4608 66.6667 44.55 66.6667C43.6392 66.6667 42.9 65.92 42.9 65C42.9 64.08 43.6392 63.3333 44.55 63.3333C45.4608 63.3333 46.2 64.08 46.2 65ZM4.95 10C2.2374 10 0 12.26 0 15V41.6667V68.3333C0 71.0733 2.2374 73.3333 4.95 73.3333H36.3V80H31.35C30.4359 80 29.7 80.7433 29.7 81.6667C29.7 82.59 30.4359 83.3333 31.35 83.3333H57.75C58.6641 83.3333 59.4 82.59 59.4 81.6667C59.4 80.7433 58.6641 80 57.75 80H52.8V73.3333H57.75C59.9544 73.3333 59.9148 70 57.75 70H4.95C4.0062 70 3.3 69.2867 3.3 68.3333V60H57.75C58.6641 60 59.4 59.2567 59.4 58.3333C59.4 57.41 58.6641 56.6667 57.75 56.6667H3.3V15C3.3 14.0467 4.0062 13.3333 4.95 13.3333H84.15C85.0938 13.3333 85.8 14.0467 85.8 15V28.3333C85.8 30.55 89.1 30.5233 89.1 28.3333V15C89.1 12.26 86.8626 10 84.15 10H4.95ZM39.6 73.3333H49.5V80H39.6V73.3333Z" fill="#FFDB70"/>
</svg>
