<svg width="99" height="100" viewBox="0 0 99 100" fill="none" xmlns="http://www.w3.org/2000/svg">
<path d="M94.3594 50C94.3594 45.9375 91.2656 42.6563 87.3984 42.1875C86.4703 37.1875 84.4594 32.6563 81.675 28.2813C84.15 25.1563 84.15 20.625 81.2109 17.8125C79.8188 16.4062 77.8078 15.625 75.7969 15.625C73.9406 15.625 72.2391 16.25 70.8469 17.5C66.6703 14.6875 62.0297 12.8125 57.0797 11.7188C56.7703 7.8125 53.5219 4.6875 49.5 4.6875C45.4781 4.6875 42.2297 7.8125 41.7656 11.7188C36.8156 12.6563 32.3297 14.6875 27.9984 17.5C24.9047 15 20.4187 15 17.6344 17.9688C14.85 20.7812 14.6953 25.4688 17.1703 28.4375C14.3859 32.6563 12.5297 37.3438 11.4469 42.3438C7.73438 42.6563 4.64062 45.9375 4.64062 50C4.64062 54.0625 7.73438 57.3437 11.6016 57.8125C12.5297 62.8125 14.5406 67.3438 17.325 71.7188C14.85 74.8438 14.85 79.375 17.7891 82.1875C19.3359 83.75 21.3469 84.5312 23.2031 84.5312C24.9047 84.5312 26.7609 83.9063 28.1531 82.6563C32.3297 85.4688 36.9703 87.3437 41.9203 88.4375C42.3844 92.3437 45.6328 95.4687 49.6547 95.4687C53.6766 95.4687 56.925 92.3437 57.3891 88.4375C62.3391 87.5 66.825 85.4688 71.1562 82.6563C72.5484 83.9063 74.25 84.5312 76.1063 84.5312C78.1172 84.5312 80.1281 83.75 81.5203 82.1875C84.3047 79.375 84.4594 74.6875 81.9844 71.7188C84.7687 67.5 86.625 62.8125 87.7078 57.8125C91.2656 57.3437 94.3594 54.0625 94.3594 50ZM75.7969 68.75C74.25 68.75 72.8578 69.2187 71.4656 70L68.0625 66.5625C71.6203 62.5 73.7859 57.3438 74.25 51.5625H79.2C79.8188 54.375 81.8297 56.5625 84.4594 57.3438C83.5312 61.7188 81.8297 65.7812 79.5094 69.5312C78.2719 69.0625 77.0344 68.75 75.7969 68.75ZM51.0469 79.8437V74.8438C56.7703 74.5313 61.875 72.1875 65.8969 68.5938L69.4547 72.1875C67.9078 74.5313 67.7531 77.5 68.9906 80C65.2781 82.5 61.2562 84.2188 56.925 85C55.9969 82.5 53.8312 80.4687 51.0469 79.8437ZM42.2297 85.1562C37.8984 84.2187 33.8766 82.5 30.1641 80.1562C31.4016 77.6562 31.2469 74.6875 29.7 72.3437L33.2578 68.75C37.2797 72.3437 42.3844 74.5312 48.1078 75V80C45.1688 80.4688 43.0031 82.5 42.2297 85.1562ZM19.6453 69.6875C17.1703 65.9375 15.4688 61.875 14.6953 57.5C17.325 56.7187 19.3359 54.375 19.9547 51.7187H24.9047C25.2141 57.5 27.5344 62.6563 31.0922 66.7188L27.5344 70.3125C25.2141 68.4375 22.1203 68.4375 19.6453 69.6875ZM23.2031 31.25C24.75 31.25 26.1422 30.7813 27.5344 30L31.0922 33.5938C27.5344 37.6562 25.3688 42.8125 24.9047 48.5938H19.9547C19.3359 45.7813 17.325 43.5937 14.6953 42.8125C15.6234 38.4375 17.325 34.375 19.6453 30.625C20.8828 30.9375 21.9656 31.25 23.2031 31.25ZM47.9531 20.1562V25.1563C42.2297 25.4688 37.125 27.8125 33.1031 31.4063L29.5453 27.8125C31.0922 25.4687 31.2469 22.5 30.0094 20C33.7219 17.5 37.7438 15.7813 42.075 15C43.0031 17.5 45.1688 19.5312 47.9531 20.1562ZM56.7703 14.8438C61.1016 15.7813 65.1234 17.5 68.8359 19.8437C67.5984 22.3437 67.7531 25.3125 69.3 27.6563L65.8969 31.25C61.875 27.6563 56.7703 25.4688 51.0469 25V20C53.8312 19.5313 55.9969 17.5 56.7703 14.8438ZM79.3547 30.3125C81.8297 34.0625 83.5312 38.125 84.3047 42.5C81.675 43.2813 79.6641 45.625 79.0453 48.2812H74.0953C73.7859 42.5 71.4656 37.3437 67.9078 33.2812L71.4656 29.6875C72.8578 30.7812 74.25 31.25 75.7969 31.25C77.0344 31.25 78.2719 30.9375 79.3547 30.3125ZM49.5 71.875C47.7984 71.875 45.6328 68.125 44.3953 61.5625C46.0969 61.0938 47.7984 60.9375 49.5 60.9375C51.2016 60.9375 52.9031 61.25 54.6047 61.5625C53.3672 68.125 51.2016 71.875 49.5 71.875ZM49.5 57.8125C47.6437 57.8125 45.6328 58.125 43.9312 58.4375C43.6219 56.4063 43.4672 54.0625 43.4672 51.5625H55.8422C55.8422 54.0625 55.5328 56.4063 55.3781 58.4375C53.3672 58.125 51.3563 57.8125 49.5 57.8125ZM43.3125 48.4375C43.3125 45.9375 43.6219 43.5938 43.7766 41.5625C45.6328 42.0313 47.4891 42.1875 49.3453 42.1875C51.2016 42.1875 53.2125 41.875 54.9141 41.5625C55.2234 43.5938 55.3781 45.9375 55.3781 48.4375H43.3125ZM49.5 39.0625C47.7984 39.0625 46.0969 38.75 44.3953 38.4375C45.6328 31.875 47.7984 28.125 49.5 28.125C51.2016 28.125 53.3672 31.875 54.6047 38.4375C52.9031 38.75 51.2016 39.0625 49.5 39.0625ZM54.6047 28.75C58.0078 29.5312 61.1016 31.25 63.7313 33.5938C61.875 35.3125 59.8641 36.5625 57.5438 37.5C56.925 34.0625 55.9969 30.9375 54.6047 28.75ZM41.4562 37.5C39.2906 36.5625 37.125 35.3125 35.2687 33.5938C37.8984 31.25 40.9922 29.6875 44.3953 28.75C43.0031 30.9375 42.075 34.0625 41.4562 37.5ZM33.1031 35.7812C35.4234 37.8125 38.0531 39.5313 40.8375 40.625C40.5281 43.125 40.2188 45.7812 40.2188 48.4375H27.8438C28.3078 43.5938 30.1641 39.2187 33.1031 35.7812ZM40.2188 51.5625C40.2188 54.2188 40.5281 56.875 40.8375 59.375C38.0531 60.4687 35.4234 62.0312 33.1031 64.2187C30.1641 60.7812 28.3078 56.4062 27.9984 51.5625H40.2188ZM41.4562 62.5C42.075 65.9375 43.1578 69.0625 44.3953 71.25C40.9922 70.4687 37.8984 68.75 35.2687 66.4062C37.125 64.6875 39.1359 63.4375 41.4562 62.5ZM57.5438 62.5C59.7094 63.4375 61.875 64.6875 63.7313 66.4062C61.1016 68.75 58.0078 70.3125 54.6047 71.25C55.9969 69.0625 56.925 65.9375 57.5438 62.5ZM65.8969 64.2187C63.5766 62.1875 60.9469 60.4687 58.1625 59.375C58.4719 56.875 58.7812 54.2188 58.7812 51.5625H71.1562C70.6922 56.4062 68.8359 60.7812 65.8969 64.2187ZM58.7812 48.4375C58.7812 45.7812 58.4719 43.125 58.1625 40.625C60.9469 39.5313 63.5766 37.9687 65.8969 35.7812C68.8359 39.2187 70.6922 43.5938 71.0016 48.4375H58.7812ZM91.2656 50C91.2656 52.6563 89.2547 54.6875 86.625 54.6875C83.9953 54.6875 81.9844 52.6563 81.9844 50C81.9844 47.3437 83.9953 45.3125 86.625 45.3125C89.2547 45.3125 91.2656 47.3437 91.2656 50ZM79.0453 20.1562C79.9734 21.0937 80.4375 22.1875 80.4375 23.4375C80.4375 24.6875 79.9734 25.9375 79.0453 26.7188C77.3437 28.4375 74.25 28.4375 72.5484 26.7188C71.6203 25.9375 71.1562 24.6875 71.1562 23.4375C71.1562 22.1875 71.6203 20.9375 72.5484 20.1562C73.4766 19.2187 74.5594 18.75 75.7969 18.75C77.0344 18.75 78.2719 19.2187 79.0453 20.1562ZM49.5 7.8125C52.1297 7.8125 54.1406 9.84375 54.1406 12.5C54.1406 15.1563 52.1297 17.1875 49.5 17.1875C46.8703 17.1875 44.8594 15.1563 44.8594 12.5C44.8594 9.84375 46.8703 7.8125 49.5 7.8125ZM19.9547 20.1562C20.8828 19.2187 22.1203 18.75 23.2031 18.75C24.4406 18.75 25.5234 19.2187 26.4516 20.1562C28.3078 22.0312 28.3078 25 26.4516 26.7188C24.5953 28.5938 21.6562 28.5938 19.9547 26.7188C18.0984 25 18.0984 21.875 19.9547 20.1562ZM7.73438 50C7.73438 47.3437 9.74531 45.3125 12.375 45.3125C15.0047 45.3125 17.0156 47.3437 17.0156 50C17.0156 52.6563 15.0047 54.6875 12.375 54.6875C9.74531 54.6875 7.73438 52.6563 7.73438 50ZM19.9547 79.8437C18.0984 77.9687 18.0984 75 19.9547 73.2813C21.8109 71.4063 24.75 71.4063 26.4516 73.2813C28.3078 75.1563 28.3078 78.125 26.4516 79.8437C24.75 81.7187 21.6562 81.7187 19.9547 79.8437ZM49.5 92.1875C46.8703 92.1875 44.8594 90.1563 44.8594 87.5C44.8594 84.8437 46.8703 82.8125 49.5 82.8125C52.1297 82.8125 54.1406 84.8437 54.1406 87.5C54.1406 90.1563 52.1297 92.1875 49.5 92.1875ZM79.0453 79.8437C77.3437 81.5625 74.25 81.5625 72.5484 79.8437C71.6203 79.0625 71.1562 77.8125 71.1562 76.5625C71.1562 75.3125 71.6203 74.0625 72.5484 73.2813C73.4766 72.3438 74.5594 71.875 75.7969 71.875C77.0344 71.875 78.2719 72.3438 79.0453 73.2813C79.9734 74.2188 80.4375 75.3125 80.4375 76.5625C80.4375 77.8125 79.9734 79.0625 79.0453 79.8437Z" fill="#FFDB70"/>
</svg>
