<svg width="99" height="100" viewBox="0 0 99 100" fill="none" xmlns="http://www.w3.org/2000/svg">
<path d="M96.6569 60.583L93.1448 58.5914C93.7346 55.7102 94.0331 52.825 94.0331 50C94.0331 47.1339 93.7394 44.246 93.1596 41.4L96.6569 39.4168C97.74 38.8027 98.5149 37.811 98.8385 36.6245C99.1621 35.438 98.9961 34.1986 98.3706 33.1348L88.8065 16.865C88.1811 15.8012 87.1714 15.0401 85.9634 14.7223C84.7551 14.4045 83.4934 14.5675 82.4101 15.1818L78.91 17.1665C74.4888 13.3464 69.2855 10.3898 63.7467 8.55029V4.59883C63.7467 2.06301 61.6462 0 59.0642 0H39.936C37.354 0 35.2535 2.06301 35.2535 4.59883V8.55049C29.7442 10.3826 24.5481 13.3431 20.1105 17.1783L16.5899 15.1818C15.5066 14.5675 14.2447 14.4043 13.0366 14.7223C11.8286 15.0403 10.8189 15.8012 10.1935 16.865L0.629359 33.1348C0.00390429 34.1986 -0.162073 35.438 0.161513 36.6245C0.4851 37.811 1.25999 38.8027 2.34313 39.4168L5.85516 41.4084C5.26577 44.2896 4.96709 47.1748 4.96709 50C4.96709 52.8658 5.26079 55.7536 5.84062 58.5998L2.34333 60.583C0.107317 61.8509 -0.661401 64.6689 0.629359 66.8652L10.1935 83.135C11.4845 85.3309 14.3537 86.0861 16.5899 84.8182L20.0898 82.8335C24.5112 86.6536 29.7143 89.6102 35.2535 91.4499V95.4012C35.2535 97.937 37.354 100 39.936 100H59.0642C61.6462 100 63.7467 97.937 63.7467 95.4012V91.4495C69.2562 89.6174 74.4523 86.6569 78.8899 82.8219L82.4103 84.8182C84.6461 86.0861 87.5157 85.3309 88.8067 83.135L98.3708 66.8652C99.6616 64.6689 98.8929 61.8509 96.6569 60.583ZM95.7823 65.3975L86.2182 81.6671C85.7514 82.4616 84.7135 82.7346 83.9047 82.2759L79.443 79.746C78.8761 79.4245 78.1618 79.5029 77.6812 79.9395C73.1197 84.083 67.6315 87.2092 61.8101 88.9804C61.1845 89.1708 60.7579 89.7391 60.7579 90.3824V95.4012C60.7579 96.3184 59.9981 97.0646 59.0642 97.0646H39.936C39.0021 97.0646 38.2423 96.3184 38.2423 95.4012V90.3826C38.2423 89.7393 37.8157 89.171 37.1903 88.9806C31.333 87.1984 25.838 84.0761 21.2989 79.9515C21.0157 79.6941 20.6513 79.5611 20.2837 79.5611C20.0274 79.5611 19.7698 79.6256 19.5369 79.7577L15.0955 82.2759C14.2865 82.7344 13.2488 82.4614 12.782 81.6671L3.21785 65.3975C2.751 64.6031 3.02916 63.5838 3.83773 63.125L8.27549 60.6086C8.84216 60.2873 9.13008 59.6415 8.98602 59.0145C8.30239 56.0386 7.95589 53.0055 7.95589 50C7.95589 47.045 8.30757 44.0149 9.00137 40.9937C9.14523 40.3669 8.85731 39.7209 8.29083 39.3998L3.83773 36.8748C3.446 36.6526 3.16585 36.2939 3.04869 35.8648C2.93173 35.4356 2.9917 34.9873 3.21785 34.6025L12.782 18.3327C13.0081 17.9479 13.3734 17.6726 13.8105 17.5577C14.2473 17.4427 14.704 17.5018 15.0957 17.7239L19.5574 20.2538C20.1245 20.5755 20.8386 20.4969 21.3192 20.0603C25.8809 15.9168 31.3689 12.7906 37.1903 11.0194C37.8159 10.829 38.2425 10.2607 38.2425 9.61742V4.59883C38.2425 3.6816 39.0023 2.93542 39.9362 2.93542H59.0644C59.9983 2.93542 60.7581 3.6816 60.7581 4.59883V9.61742C60.7581 10.2607 61.1847 10.829 61.8101 11.0194C67.6672 12.8014 73.1622 15.9237 77.7015 20.0485C78.1821 20.4853 78.8965 20.5638 79.4635 20.2423L83.9049 17.7239C84.2968 17.5018 84.7533 17.4427 85.1901 17.5577C85.627 17.6728 85.9923 17.9479 86.2186 18.3327L95.7827 34.6025C96.0089 34.9873 96.0691 35.4356 95.9519 35.8648C95.8348 36.2939 95.5546 36.6526 95.1629 36.8748L90.7251 39.3912C90.1584 39.7125 89.8705 40.3585 90.0146 40.9853C90.6982 43.9611 91.0447 46.9939 91.0447 50C91.0447 52.955 90.693 55.9851 89.9992 59.0061C89.8554 59.6329 90.1433 60.2787 90.7098 60.6L95.1629 63.125C95.9712 63.5838 96.2494 64.6031 95.7823 65.3975Z" fill="#FFDB70"/>
<path d="M49.4998 20.3522C32.8546 20.3522 19.313 33.6522 19.313 49.9999C19.313 66.3477 32.8546 79.6477 49.4998 79.6477C66.145 79.6477 79.6866 66.3477 79.6866 49.9999C79.6866 33.6522 66.145 20.3522 49.4998 20.3522ZM49.4998 76.7123C34.5028 76.7123 22.3018 64.7291 22.3018 49.9999C22.3018 35.2708 34.5028 23.2876 49.4998 23.2876C64.4968 23.2876 76.6978 35.2708 76.6978 49.9999C76.6978 64.7291 64.4968 76.7123 49.4998 76.7123Z" fill="#FFDB70"/>
<path d="M55.0793 42.2701H49.5003C48.675 42.2701 48.0059 42.9273 48.0059 43.7379V56.2623C48.0059 57.0729 48.675 57.73 49.5003 57.73C50.3256 57.73 50.9947 57.0729 50.9947 56.2623V53.0334H55.0793C58.1008 53.0334 60.5588 50.6193 60.5588 47.6517C60.5588 44.6842 58.1008 42.2701 55.0793 42.2701ZM55.0793 50.0979H50.9947V45.2056H55.0793C56.4528 45.2056 57.57 46.3028 57.57 47.6517C57.57 49.0007 56.4528 50.0979 55.0793 50.0979Z" fill="white"/>
<path d="M41.3354 43.2226C41.1166 42.6498 40.5591 42.2701 39.9363 42.2701H38.3422C37.7194 42.2701 37.1617 42.6496 36.9431 43.2226L32.161 55.7471C31.8711 56.506 32.2628 57.3519 33.0355 57.6367C33.8082 57.9214 34.6696 57.5367 34.9595 56.7778L35.7912 54.5989H42.4871L43.319 56.7776C43.5439 57.3668 44.1134 57.7304 44.7183 57.7304C44.8927 57.7304 45.07 57.7003 45.2428 57.6367C46.0155 57.3521 46.4072 56.506 46.1173 55.7471L41.3354 43.2226ZM36.912 51.6635L39.1393 45.8304L41.3665 51.6635H36.912Z" fill="white"/>
<path d="M63.8464 42.2701C63.0211 42.2701 62.3521 42.9273 62.3521 43.7379V56.2623C62.3521 57.0729 63.0211 57.73 63.8464 57.73C64.6718 57.73 65.3408 57.0729 65.3408 56.2623V43.7379C65.3408 42.9273 64.6718 42.2701 63.8464 42.2701Z" fill="white"/>
<path d="M60.19 17.0842C61.2271 17.4088 62.261 17.7859 63.2627 18.2047C63.4535 18.2845 63.652 18.3223 63.8473 18.3223C64.4283 18.3223 64.981 17.9873 65.2229 17.4292C65.5461 16.6834 65.1926 15.8213 64.4333 15.5039C63.3457 15.0493 62.2235 14.6399 61.0974 14.2875C60.3113 14.0413 59.4705 14.4679 59.2198 15.2401C58.9693 16.0123 59.4037 16.838 60.19 17.0842Z" fill="#FFDB70"/>
<path d="M18.6059 66.5174C18.2106 65.8059 17.3026 65.5436 16.5783 65.9319C15.8538 66.3201 15.5868 67.2117 15.9821 67.9233C16.6022 69.0395 17.2886 70.1376 18.0223 71.1869C18.312 71.6012 18.7797 71.8239 19.2555 71.8239C19.547 71.8239 19.8415 71.7403 20.1001 71.5659C20.7805 71.107 20.9533 70.1933 20.4861 69.5252C19.81 68.5581 19.1774 67.5462 18.6059 66.5174Z" fill="#FFDB70"/>
<path d="M46.4393 84.4111C38.4316 83.7334 30.8305 80.3252 25.0364 74.814C24.4434 74.25 23.4974 74.2651 22.9233 74.8473C22.3493 75.4297 22.3642 76.3588 22.9572 76.9226C29.2436 82.9021 37.4921 86.6001 46.1827 87.3355C46.2263 87.3393 46.2696 87.341 46.3126 87.341C47.0799 87.341 47.7327 86.7639 47.7998 85.9993C47.8706 85.1919 47.2615 84.4807 46.4393 84.4111Z" fill="#FFDB70"/>
<path d="M71.0047 19.0386C70.3233 18.5813 69.3934 18.7531 68.9277 19.4222C68.4621 20.0915 68.637 21.0048 69.3182 21.4621C76.261 26.1222 81.2832 33.0567 83.4596 40.9878C83.6393 41.6426 84.2427 42.0739 84.9016 42.0739C85.0303 42.0739 85.1612 42.0574 85.2913 42.023C86.0884 41.812 86.5602 41.0066 86.3454 40.224C83.9838 31.6173 78.5357 24.0936 71.0047 19.0386Z" fill="#FFDB70"/>
</svg>
