<svg width="99" height="100" viewBox="0 0 99 100" fill="none" xmlns="http://www.w3.org/2000/svg">
<path d="M66.4272 4.75716C66.1898 4.74788 66.0299 4.74883 65.9853 4.8018C65.9162 4.88379 64.8718 8.11749 63.6871 11.9447C62.5023 15.7718 59.5694 25.2374 57.146 33.0161C54.7225 40.7948 52.7936 47.3082 52.8589 47.4804C52.9619 47.7513 53.479 47.7929 56.5714 47.7929C59.4771 47.7929 60.1798 47.8711 60.3723 48.1054C60.5653 48.3402 60.0251 49.8193 57.4554 56.0964C55.7217 60.3312 54.1175 64.1561 53.9196 64.6232C53.7217 65.0904 53.6796 65.4629 53.7871 65.4268C54.1273 65.3122 75.4875 40.7034 75.4875 40.4268C75.4875 40.2128 74.6207 40.1589 70.9353 40.1589C68.0862 40.1589 66.3705 40.1042 66.2946 39.9804C66.2281 39.8716 66.8412 38.56 67.6647 37.0786C68.4883 35.5972 70.4621 31.9983 72.0844 29.0875C79.0693 16.5543 82.3285 10.7291 82.4263 10.4714C82.5412 10.169 79.4235 8.47496 76.725 7.39109C73.9595 6.2803 68.0889 4.82211 66.4272 4.75716ZM54.671 9.62323L53.9638 9.71252C53.145 9.84049 48.8949 11.0051 48.0857 11.3197L47.5112 11.5429L47.5996 15.8732L47.6437 20.2036L47.0692 20.5161C46.7535 20.6765 45.8948 21.1589 45.1687 21.5875L43.8429 22.3464L40.3071 20.2482C38.365 19.0905 36.722 18.1054 36.6388 18.0607C36.4208 17.9436 34.0545 20.0937 32.5728 21.7661L31.2911 23.1947L33.5009 26.9L35.7107 30.6054L35.2246 31.4089C34.9577 31.8483 34.4437 32.7386 34.1196 33.3732L33.5451 34.5339L29.3022 34.4447L25.0152 34.3554L24.6174 35.3375C24.2591 36.2858 23.4481 39.5163 23.2031 40.9179L23.0705 41.6322L26.783 43.6857L30.4955 45.7393V48.0161V50.2482L26.783 52.3018L23.0705 54.3554L23.2031 55.0697C23.4038 56.218 24.2266 59.4175 24.6174 60.5607L24.971 61.6322L29.258 61.5429L33.5451 61.4536L34.1196 62.6143C34.4437 63.2489 34.9577 64.1392 35.2246 64.5786L35.7107 65.3822L33.5009 69.0875L31.2911 72.7929L32.8379 74.4893C34.2388 76.0375 36.3098 77.9714 36.5504 77.9714C36.6017 77.9714 38.2764 77.0191 40.2629 75.8286L43.8871 73.6411L45.1687 74.4447C45.8888 74.8696 46.7535 75.3557 47.0692 75.5161L47.6437 75.7839L47.5996 80.1143L47.5112 84.4447L48.0857 84.6679C48.9481 85.0013 51.778 85.7933 53.1683 86.0964C53.8621 86.2477 54.4803 86.4004 54.5384 86.4089C54.5965 86.4175 55.5853 84.7696 56.704 82.7482L58.7371 79.0429H61.0353H63.3335L65.3223 82.7036L67.3112 86.3197L67.9741 86.2304C68.7244 86.1533 72.5337 85.2107 73.6754 84.8018L74.4268 84.4893V80.1589V75.7839L75.0013 75.5161C75.3215 75.3528 76.1801 74.8706 76.9018 74.4447L78.2277 73.6411L81.8076 75.8286C83.7704 77.02 85.4397 77.9714 85.5643 77.9714C85.8732 77.9714 90.6469 73.1112 90.6469 72.7929C90.6469 72.6531 89.6944 70.9208 88.5254 68.9536L86.404 65.3822L86.8902 64.5786C87.157 64.1392 87.6269 63.2489 87.9509 62.6143L88.5254 61.4536L92.8125 61.5429L97.0996 61.6322L97.4531 60.5607C97.8467 59.4092 98.6718 56.2034 98.8674 55.0697L99 54.3554L95.2875 52.3018L91.6192 50.2482V48.0161V45.7393L95.2875 43.6857C97.3154 42.558 99.001 41.5634 99 41.4536C98.9958 40.9689 98.011 36.9856 97.5857 35.7393L97.0996 34.3554L92.8125 34.4447L88.5254 34.5339L87.9509 33.3732C87.6268 32.7384 87.157 31.8483 86.8902 31.4089L86.404 30.6054L88.5696 26.9L90.7795 23.1947L89.2326 21.4982C87.5505 19.6392 85.6765 17.9563 85.4317 18.0607C85.3479 18.0965 84.3671 18.6192 83.2661 19.2661L81.2772 20.4714L78.4045 24.7572L75.5317 29.0429L77.3879 30.9179C81.2492 34.7862 83.5713 39.3045 84.3268 44.4893C84.6803 46.9152 84.6876 48.2194 84.4152 50.65C83.2464 61.0783 75.5271 69.4366 65.2339 71.4089C63.1908 71.8005 59.0019 71.7904 56.8366 71.4089C50.07 70.217 43.8377 65.716 40.4397 59.5786C37.2749 53.8622 36.6197 46.7176 38.6719 40.4714C40.6581 34.426 45.0013 29.4222 50.7375 26.6322C52.5767 25.7376 55.7228 24.6679 56.5272 24.6679C57.0186 24.6679 57.1133 24.3483 58.0299 20.4714L58.8254 17.1679L56.7482 13.3732L54.671 9.62323ZM14.2754 62.6143L13.5683 64.8464L12.8612 67.0786L11.5795 67.6143L10.2978 68.15L8.26473 67.2125C7.14827 66.6806 6.18736 66.2304 6.09911 66.2304C6.01091 66.2304 5.37549 66.8192 4.68482 67.525L3.40312 68.775L4.41964 70.7839C4.98328 71.8839 5.43899 72.8997 5.43616 73.0161C5.43287 73.1325 5.24769 73.726 4.9942 74.3554L4.50804 75.5161L2.29821 76.3197L0.0883929 77.1232L0.0441964 78.9982L0 80.8286L2.25402 81.5875L4.46384 82.3018L4.86161 83.2393C5.55369 84.8113 5.53482 84.9631 4.46384 87.1679L3.49152 89.2214L4.77321 90.5607L6.09911 91.8554L8.26473 90.7839L10.3862 89.7125L11.6679 90.2929L12.9054 90.8732L13.6567 93.0607L14.408 95.2482H16.3085H18.1647L18.8277 93.0161L19.5348 90.8286L20.7723 90.2929L22.054 89.7125L24.2638 90.7393L26.4295 91.7661L27.7112 90.4714L28.9929 89.1768L27.9763 87.0339L26.9156 84.8911L27.3576 83.6857C27.6001 83.0308 27.8989 82.4396 28.0205 82.3464C28.1422 82.2533 29.1677 81.8173 30.3187 81.4089L32.4402 80.6947L32.396 78.8197L32.3076 76.9447L30.142 76.2304L27.9321 75.5161L27.446 74.3554C27.1895 73.7172 27.004 73.1036 27.004 72.9714C27.004 72.8392 27.4096 71.8249 27.9321 70.6947L28.9045 68.6411L27.5786 67.3018L26.2527 65.9625L24.1754 67.0786L22.1424 68.15L20.8607 67.6143L19.579 67.1232L18.7835 64.8464L17.9437 62.6143H16.1317H14.2754ZM16.2201 73.8197C20.9326 73.8222 23.1183 79.5741 19.6232 82.7482C19.1064 83.2176 18.323 83.6915 17.8996 83.8197C15.1059 84.6651 12.141 83.1777 11.3585 80.5161C10.9578 79.1531 10.9753 78.3963 11.4469 77.1232C12.2103 75.062 14.041 73.8185 16.2201 73.8197Z" fill="#FFDB70"/>
</svg>
